solid OpenSCAD_Model
  facet normal -1 0 0
    outer loop
      vertex -36.5 -99.5 -10.01
      vertex -36.5 99.5 -8.01
      vertex -36.5 99.5 -10.01
    endloop
  endfacet
  facet normal -1 -0 0
    outer loop
      vertex -36.5 99.5 -8.01
      vertex -36.5 -99.5 -10.01
      vertex -36.5 -99.5 -8.01
    endloop
  endfacet
  facet normal -0 0 1
    outer loop
      vertex -36.5 99.5 -8.01
      vertex 71.5 -99.5 -8.01
      vertex 71.5 99.5 -8.01
    endloop
  endfacet
  facet normal 0 0 1
    outer loop
      vertex 71.5 -99.5 -8.01
      vertex -36.5 99.5 -8.01
      vertex -36.5 -99.5 -8.01
    endloop
  endfacet
  facet normal 1 -0 0
    outer loop
      vertex 71.5 -99.5 -8.01
      vertex 71.5 99.5 -10.01
      vertex 71.5 99.5 -8.01
    endloop
  endfacet
  facet normal 1 0 0
    outer loop
      vertex 71.5 99.5 -10.01
      vertex 71.5 -99.5 -8.01
      vertex 71.5 -99.5 -10.01
    endloop
  endfacet
  facet normal 0 0 -1
    outer loop
      vertex -36.5 -99.5 -10.01
      vertex 71.5 99.5 -10.01
      vertex 71.5 -99.5 -10.01
    endloop
  endfacet
  facet normal -0 0 -1
    outer loop
      vertex 71.5 99.5 -10.01
      vertex -36.5 -99.5 -10.01
      vertex -36.5 99.5 -10.01
    endloop
  endfacet
  facet normal 0 -1 0
    outer loop
      vertex -36.5 -99.5 -10.01
      vertex 71.5 -99.5 -8.01
      vertex -36.5 -99.5 -8.01
    endloop
  endfacet
  facet normal 0 -1 -0
    outer loop
      vertex 71.5 -99.5 -8.01
      vertex -36.5 -99.5 -10.01
      vertex 71.5 -99.5 -10.01
    endloop
  endfacet
  facet normal 0 1 -0
    outer loop
      vertex 71.5 99.5 -10.01
      vertex -36.5 99.5 -8.01
      vertex 71.5 99.5 -8.01
    endloop
  endfacet
  facet normal 0 1 0
    outer loop
      vertex -36.5 99.5 -8.01
      vertex 71.5 99.5 -10.01
      vertex -36.5 99.5 -10.01
    endloop
  endfacet
endsolid OpenSCAD_Model
