solid OpenSCAD_Model
  facet normal 0 0 -1
    outer loop
      vertex 0 0 0
      vertex 200 10 0
      vertex 200 0 0
    endloop
  endfacet
  facet normal -0 0 -1
    outer loop
      vertex 200 10 0
      vertex 0 0 0
      vertex 0 10 0
    endloop
  endfacet
  facet normal 1 0 0
    outer loop
      vertex 200 0 21.36
      vertex 200 10 54.0037
      vertex 200 8.28678 53.3801
    endloop
  endfacet
  facet normal 1 0 0
    outer loop
      vertex 200 10 54.0037
      vertex 200 0 21.36
      vertex 200 10 0
    endloop
  endfacet
  facet normal 1 0 0
    outer loop
      vertex 200 10 0
      vertex 200 0 21.36
      vertex 200 0 0
    endloop
  endfacet
  facet normal 0 -1 0
    outer loop
      vertex 0 0 0
      vertex 200 0 21.36
      vertex 0 0 21.36
    endloop
  endfacet
  facet normal 0 -1 -0
    outer loop
      vertex 200 0 21.36
      vertex 0 0 0
      vertex 200 0 0
    endloop
  endfacet
  facet normal -1 0 0
    outer loop
      vertex 0 0 21.36
      vertex 0 10 54.0037
      vertex 0 10 0
    endloop
  endfacet
  facet normal -1 0 0
    outer loop
      vertex 0 0 21.36
      vertex 0 10 0
      vertex 0 0 0
    endloop
  endfacet
  facet normal -1 0 0
    outer loop
      vertex 0 10 54.0037
      vertex 0 0 21.36
      vertex 0 8.28678 53.3801
    endloop
  endfacet
  facet normal 0 -0.968105 0.250545
    outer loop
      vertex 0 0 21.36
      vertex 200 8.28678 53.3801
      vertex 0 8.28678 53.3801
    endloop
  endfacet
  facet normal 0 -0.968105 0.250545
    outer loop
      vertex 200 8.28678 53.3801
      vertex 0 0 21.36
      vertex 200 0 21.36
    endloop
  endfacet
  facet normal 0 1 -0
    outer loop
      vertex 200 10 0
      vertex 0 10 54.0037
      vertex 200 10 54.0037
    endloop
  endfacet
  facet normal 0 1 0
    outer loop
      vertex 0 10 54.0037
      vertex 200 10 0
      vertex 0 10 0
    endloop
  endfacet
  facet normal 0 -0.34202 0.939693
    outer loop
      vertex 0 10 54.0037
      vertex 200 8.28678 53.3801
      vertex 200 10 54.0037
    endloop
  endfacet
  facet normal 0 -0.34202 0.939693
    outer loop
      vertex 200 8.28678 53.3801
      vertex 0 10 54.0037
      vertex 0 8.28678 53.3801
    endloop
  endfacet
endsolid OpenSCAD_Model
